<svg width="135" height="40" viewBox="0 0 135 40" fill="none" xmlns="http://www.w3.org/2000/svg">
<rect x="0.5" y="0.5" width="134" height="39" rx="4.5" stroke="#2C8AD3"/>
<path d="M23.75 20H31.25" stroke="#2C8AD3" stroke-width="1.5" stroke-linecap="round" stroke-linejoin="round"/>
<path d="M27.5 23.75V16.25" stroke="#2C8AD3" stroke-width="1.5" stroke-linecap="round" stroke-linejoin="round"/>
<path d="M44.3118 25.5H42.343L45.9276 15.3182H48.2045L51.794 25.5H49.8253L47.1058 17.4062H47.0263L44.3118 25.5ZM44.3764 21.5078H49.7457V22.9893H44.3764V21.5078ZM55.657 25.6342C55.0571 25.6342 54.5201 25.4801 54.0462 25.1719C53.5722 24.8636 53.1977 24.4162 52.9226 23.8295C52.6475 23.2429 52.5099 22.5303 52.5099 21.6918C52.5099 20.8433 52.6491 20.1274 52.9276 19.544C53.2093 18.9574 53.5888 18.5149 54.0661 18.2166C54.5433 17.915 55.0753 17.7642 55.6619 17.7642C56.1094 17.7642 56.4773 17.8404 56.7656 17.9929C57.054 18.142 57.2827 18.3227 57.4517 18.5348C57.6207 18.7436 57.7517 18.9408 57.8445 19.1264H57.919V15.3182H59.7237V25.5H57.9538V24.2969H57.8445C57.7517 24.4825 57.6174 24.6797 57.4418 24.8885C57.2661 25.094 57.0341 25.2696 56.7457 25.4155C56.4574 25.5613 56.0945 25.6342 55.657 25.6342ZM56.1591 24.1577C56.5402 24.1577 56.8651 24.0549 57.1335 23.8494C57.402 23.6406 57.6058 23.3506 57.745 22.9794C57.8842 22.6082 57.9538 22.1757 57.9538 21.6818C57.9538 21.188 57.8842 20.7588 57.745 20.3942C57.6091 20.0296 57.407 19.7462 57.1385 19.544C56.8733 19.3419 56.5469 19.2408 56.1591 19.2408C55.758 19.2408 55.4233 19.3452 55.1548 19.554C54.8864 19.7628 54.6842 20.0511 54.5483 20.419C54.4124 20.7869 54.3445 21.2079 54.3445 21.6818C54.3445 22.1591 54.4124 22.585 54.5483 22.9595C54.6875 23.3307 54.8913 23.6241 55.1598 23.8395C55.4316 24.0516 55.7647 24.1577 56.1591 24.1577ZM64.4753 25.6342C63.8754 25.6342 63.3385 25.4801 62.8645 25.1719C62.3906 24.8636 62.016 24.4162 61.7409 23.8295C61.4658 23.2429 61.3283 22.5303 61.3283 21.6918C61.3283 20.8433 61.4675 20.1274 61.7459 19.544C62.0276 18.9574 62.4071 18.5149 62.8844 18.2166C63.3617 17.915 63.8936 17.7642 64.4803 17.7642C64.9277 17.7642 65.2956 17.8404 65.584 17.9929C65.8723 18.142 66.101 18.3227 66.2701 18.5348C66.4391 18.7436 66.57 18.9408 66.6628 19.1264H66.7374V15.3182H68.5421V25.5H66.7722V24.2969H66.6628C66.57 24.4825 66.4358 24.6797 66.2601 24.8885C66.0845 25.094 65.8525 25.2696 65.5641 25.4155C65.2757 25.5613 64.9128 25.6342 64.4753 25.6342ZM64.9775 24.1577C65.3586 24.1577 65.6834 24.0549 65.9519 23.8494C66.2203 23.6406 66.4242 23.3506 66.5634 22.9794C66.7026 22.6082 66.7722 22.1757 66.7722 21.6818C66.7722 21.188 66.7026 20.7588 66.5634 20.3942C66.4275 20.0296 66.2253 19.7462 65.9569 19.544C65.6917 19.3419 65.3652 19.2408 64.9775 19.2408C64.5764 19.2408 64.2417 19.3452 63.9732 19.554C63.7047 19.7628 63.5025 20.0511 63.3667 20.419C63.2308 20.7869 63.1628 21.2079 63.1628 21.6818C63.1628 22.1591 63.2308 22.585 63.3667 22.9595C63.5059 23.3307 63.7097 23.6241 63.9782 23.8395C64.2499 24.0516 64.583 24.1577 64.9775 24.1577ZM77.7457 17.8636V19.2557H73.3558V17.8636H77.7457ZM74.4396 16.0341H76.2393V23.2031C76.2393 23.4451 76.2758 23.6307 76.3487 23.7599C76.425 23.8859 76.5244 23.9721 76.647 24.0185C76.7696 24.0649 76.9055 24.0881 77.0547 24.0881C77.1674 24.0881 77.2701 24.0798 77.3629 24.0632C77.459 24.0466 77.532 24.0317 77.5817 24.0185L77.8849 25.4254C77.7888 25.4586 77.6513 25.495 77.4723 25.5348C77.2966 25.5746 77.0812 25.5978 76.826 25.6044C76.3752 25.6177 75.9692 25.5497 75.608 25.4006C75.2467 25.2481 74.96 25.0128 74.7479 24.6946C74.5391 24.3764 74.4363 23.9787 74.4396 23.5014V16.0341ZM82.4998 25.6491C81.7541 25.6491 81.1078 25.4851 80.5609 25.157C80.014 24.8288 79.5898 24.3698 79.2882 23.7798C78.9899 23.1899 78.8407 22.5005 78.8407 21.7116C78.8407 20.9228 78.9899 20.2318 79.2882 19.6385C79.5898 19.0452 80.014 18.5845 80.5609 18.2564C81.1078 17.9283 81.7541 17.7642 82.4998 17.7642C83.2456 17.7642 83.8919 17.9283 84.4387 18.2564C84.9856 18.5845 85.4082 19.0452 85.7065 19.6385C86.0081 20.2318 86.1589 20.9228 86.1589 21.7116C86.1589 22.5005 86.0081 23.1899 85.7065 23.7798C85.4082 24.3698 84.9856 24.8288 84.4387 25.157C83.8919 25.4851 83.2456 25.6491 82.4998 25.6491ZM82.5098 24.2074C82.9141 24.2074 83.2522 24.0964 83.524 23.8743C83.7958 23.6489 83.9979 23.3473 84.1305 22.9695C84.2664 22.5916 84.3343 22.1707 84.3343 21.7067C84.3343 21.2393 84.2664 20.8168 84.1305 20.4389C83.9979 20.0578 83.7958 19.7545 83.524 19.5291C83.2522 19.3037 82.9141 19.1911 82.5098 19.1911C82.0955 19.1911 81.7508 19.3037 81.4757 19.5291C81.2039 19.7545 81.0001 20.0578 80.8642 20.4389C80.7316 20.8168 80.6653 21.2393 80.6653 21.7067C80.6653 22.1707 80.7316 22.5916 80.8642 22.9695C81.0001 23.3473 81.2039 23.6489 81.4757 23.8743C81.7508 24.0964 82.0955 24.2074 82.5098 24.2074ZM91.2386 25.5V15.3182H93.0831V23.9538H97.5675V25.5H91.2386ZM99.0888 25.5V17.8636H100.888V25.5H99.0888ZM99.9936 16.7798C99.7086 16.7798 99.4633 16.6854 99.2578 16.4964C99.0523 16.3042 98.9496 16.0739 98.9496 15.8054C98.9496 15.5336 99.0523 15.3033 99.2578 15.1143C99.4633 14.9221 99.7086 14.826 99.9936 14.826C100.282 14.826 100.527 14.9221 100.729 15.1143C100.935 15.3033 101.038 15.5336 101.038 15.8054C101.038 16.0739 100.935 16.3042 100.729 16.4964C100.527 16.6854 100.282 16.7798 99.9936 16.7798ZM108.775 19.8821L107.134 20.0611C107.088 19.8954 107.006 19.7396 106.89 19.5938C106.778 19.4479 106.625 19.3303 106.433 19.2408C106.241 19.1513 106.006 19.1065 105.727 19.1065C105.353 19.1065 105.038 19.1877 104.782 19.3501C104.531 19.5125 104.406 19.723 104.41 19.9815C104.406 20.2036 104.488 20.3842 104.653 20.5234C104.822 20.6626 105.101 20.777 105.488 20.8665L106.791 21.1449C107.514 21.3007 108.05 21.5476 108.402 21.8857C108.756 22.2237 108.935 22.6662 108.939 23.2131C108.935 23.6937 108.795 24.1179 108.516 24.4858C108.241 24.8504 107.858 25.1354 107.368 25.3409C106.877 25.5464 106.314 25.6491 105.677 25.6491C104.743 25.6491 103.99 25.4536 103.42 25.0625C102.85 24.6681 102.51 24.1196 102.401 23.4169L104.156 23.2479C104.236 23.5926 104.405 23.8527 104.663 24.0284C104.922 24.2041 105.258 24.2919 105.672 24.2919C106.1 24.2919 106.443 24.2041 106.702 24.0284C106.963 23.8527 107.094 23.6357 107.094 23.3771C107.094 23.1584 107.01 22.9777 106.841 22.8352C106.675 22.6927 106.416 22.5833 106.065 22.5071L104.763 22.2337C104.03 22.0812 103.488 21.8243 103.137 21.4631C102.786 21.0985 102.612 20.6378 102.615 20.081C102.612 19.6103 102.739 19.2027 102.998 18.858C103.26 18.5099 103.622 18.2415 104.086 18.0526C104.554 17.8603 105.092 17.7642 105.702 17.7642C106.597 17.7642 107.301 17.9548 107.815 18.3359C108.332 18.7171 108.652 19.2325 108.775 19.8821ZM114.236 17.8636V19.2557H109.846V17.8636H114.236ZM110.93 16.0341H112.73V23.2031C112.73 23.4451 112.766 23.6307 112.839 23.7599C112.915 23.8859 113.015 23.9721 113.137 24.0185C113.26 24.0649 113.396 24.0881 113.545 24.0881C113.658 24.0881 113.76 24.0798 113.853 24.0632C113.949 24.0466 114.022 24.0317 114.072 24.0185L114.375 25.4254C114.279 25.4586 114.142 25.495 113.963 25.5348C113.787 25.5746 113.571 25.5978 113.316 25.6044C112.865 25.6177 112.459 25.5497 112.098 25.4006C111.737 25.2481 111.45 25.0128 111.238 24.6946C111.029 24.3764 110.927 23.9787 110.93 23.5014V16.0341Z" fill="#2C8AD3"/>
</svg>
