<svg width="81" height="23" viewBox="0 0 81 23" fill="none" xmlns="http://www.w3.org/2000/svg">
<rect x="0.5" y="0.5" width="80" height="22" rx="11" stroke="#30A952"/>
<path d="M16.4148 16H15.3068L18.5114 7.27273H19.6023L22.8068 16H21.6989L19.0909 8.65341H19.0227L16.4148 16ZM16.8239 12.5909H21.2898V13.5284H16.8239V12.5909ZM28.5618 9.45455L26.1413 16H25.1186L22.6982 9.45455H23.7891L25.5959 14.6705H25.6641L27.4709 9.45455H28.5618ZM31.6161 16.1534C31.2013 16.1534 30.8249 16.0753 30.4869 15.919C30.1488 15.7599 29.8803 15.5312 29.6815 15.233C29.4826 14.9318 29.3832 14.5682 29.3832 14.142C29.3832 13.767 29.457 13.4631 29.6048 13.2301C29.7525 12.9943 29.9499 12.8097 30.1971 12.6761C30.4442 12.5426 30.717 12.4432 31.0153 12.3778C31.3164 12.3097 31.619 12.2557 31.9229 12.2159C32.3207 12.1648 32.6431 12.1264 32.8903 12.1009C33.1403 12.0724 33.3221 12.0256 33.4357 11.9602C33.5522 11.8949 33.6104 11.7812 33.6104 11.6193V11.5852C33.6104 11.1648 33.4954 10.8381 33.2653 10.6051C33.038 10.3722 32.6928 10.2557 32.2298 10.2557C31.7496 10.2557 31.3732 10.3608 31.1005 10.571C30.8278 10.7812 30.636 11.0057 30.5252 11.2443L29.5707 10.9034C29.7411 10.5057 29.9684 10.196 30.2525 9.97443C30.5394 9.75 30.8519 9.59375 31.19 9.50568C31.5309 9.41477 31.8661 9.36932 32.1957 9.36932C32.4059 9.36932 32.6474 9.39489 32.9201 9.44602C33.1957 9.49432 33.4613 9.59517 33.717 9.74858C33.9755 9.90199 34.19 10.1335 34.3604 10.4432C34.5309 10.7528 34.6161 11.1676 34.6161 11.6875V16H33.6104V15.1136H33.5593C33.4911 15.2557 33.3775 15.4077 33.2184 15.5696C33.0593 15.7315 32.8477 15.8693 32.5835 15.983C32.3192 16.0966 31.9968 16.1534 31.6161 16.1534ZM31.7695 15.25C32.1673 15.25 32.5025 15.1719 32.7752 15.0156C33.0508 14.8594 33.2582 14.6577 33.3974 14.4105C33.5394 14.1634 33.6104 13.9034 33.6104 13.6307V12.7102C33.5678 12.7614 33.4741 12.8082 33.3292 12.8509C33.1871 12.8906 33.0224 12.9261 32.8349 12.9574C32.6502 12.9858 32.4698 13.0114 32.2937 13.0341C32.1204 13.054 31.9798 13.071 31.8718 13.0852C31.6104 13.1193 31.3661 13.1747 31.1388 13.2514C30.9144 13.3253 30.7326 13.4375 30.5934 13.5881C30.457 13.7358 30.3888 13.9375 30.3888 14.1932C30.3888 14.5426 30.5181 14.8068 30.7766 14.9858C31.038 15.1619 31.369 15.25 31.7695 15.25ZM36.4517 16V9.45455H37.4574V16H36.4517ZM36.9631 8.36364C36.767 8.36364 36.598 8.29688 36.456 8.16335C36.3168 8.02983 36.2472 7.86932 36.2472 7.68182C36.2472 7.49432 36.3168 7.33381 36.456 7.20028C36.598 7.06676 36.767 7 36.9631 7C37.1591 7 37.3267 7.06676 37.4659 7.20028C37.608 7.33381 37.679 7.49432 37.679 7.68182C37.679 7.86932 37.608 8.02983 37.4659 8.16335C37.3267 8.29688 37.1591 8.36364 36.9631 8.36364ZM40.305 7.27273V16H39.2994V7.27273H40.305ZM44.0732 16.1534C43.6584 16.1534 43.282 16.0753 42.9439 15.919C42.6058 15.7599 42.3374 15.5312 42.1385 15.233C41.9396 14.9318 41.8402 14.5682 41.8402 14.142C41.8402 13.767 41.9141 13.4631 42.0618 13.2301C42.2095 12.9943 42.407 12.8097 42.6541 12.6761C42.9013 12.5426 43.174 12.4432 43.4723 12.3778C43.7734 12.3097 44.076 12.2557 44.38 12.2159C44.7777 12.1648 45.1001 12.1264 45.3473 12.1009C45.5973 12.0724 45.7791 12.0256 45.8928 11.9602C46.0092 11.8949 46.0675 11.7812 46.0675 11.6193V11.5852C46.0675 11.1648 45.9524 10.8381 45.7223 10.6051C45.495 10.3722 45.1499 10.2557 44.6868 10.2557C44.2067 10.2557 43.8303 10.3608 43.5575 10.571C43.2848 10.7812 43.093 11.0057 42.9822 11.2443L42.0277 10.9034C42.1982 10.5057 42.4254 10.196 42.7095 9.97443C42.9964 9.75 43.3089 9.59375 43.647 9.50568C43.9879 9.41477 44.3232 9.36932 44.6527 9.36932C44.8629 9.36932 45.1044 9.39489 45.3771 9.44602C45.6527 9.49432 45.9183 9.59517 46.174 9.74858C46.4325 9.90199 46.647 10.1335 46.8175 10.4432C46.9879 10.7528 47.0732 11.1676 47.0732 11.6875V16H46.0675V15.1136H46.0163C45.9482 15.2557 45.8345 15.4077 45.6754 15.5696C45.5163 15.7315 45.3047 15.8693 45.0405 15.983C44.7763 16.0966 44.4538 16.1534 44.0732 16.1534ZM44.2266 15.25C44.6243 15.25 44.9595 15.1719 45.2322 15.0156C45.5078 14.8594 45.7152 14.6577 45.8544 14.4105C45.9964 14.1634 46.0675 13.9034 46.0675 13.6307V12.7102C46.0249 12.7614 45.9311 12.8082 45.7862 12.8509C45.6442 12.8906 45.4794 12.9261 45.2919 12.9574C45.1072 12.9858 44.9268 13.0114 44.7507 13.0341C44.5774 13.054 44.4368 13.071 44.3288 13.0852C44.0675 13.1193 43.8232 13.1747 43.5959 13.2514C43.3714 13.3253 43.1896 13.4375 43.0504 13.5881C42.9141 13.7358 42.8459 13.9375 42.8459 14.1932C42.8459 14.5426 42.9751 14.8068 43.2337 14.9858C43.495 15.1619 43.826 15.25 44.2266 15.25ZM49.0451 16V7.27273H50.0508V10.4943H50.136C50.2099 10.3807 50.3121 10.2358 50.4428 10.0597C50.5763 9.88068 50.7667 9.72159 51.0138 9.58239C51.2638 9.44034 51.6019 9.36932 52.0281 9.36932C52.5792 9.36932 53.065 9.5071 53.4854 9.78267C53.9059 10.0582 54.234 10.4489 54.4698 10.9545C54.7056 11.4602 54.8235 12.0568 54.8235 12.7443C54.8235 13.4375 54.7056 14.0384 54.4698 14.5469C54.234 15.0526 53.9073 15.4446 53.4897 15.723C53.0721 15.9986 52.5906 16.1364 52.0451 16.1364C51.6246 16.1364 51.288 16.0668 51.0352 15.9276C50.7823 15.7855 50.5877 15.625 50.4513 15.446C50.315 15.2642 50.2099 15.1136 50.136 14.9943H50.0167V16H49.0451ZM50.0337 12.7273C50.0337 13.2216 50.1062 13.6577 50.2511 14.0355C50.396 14.4105 50.6076 14.7045 50.886 14.9176C51.1644 15.1278 51.5053 15.233 51.9087 15.233C52.3292 15.233 52.68 15.1222 52.9613 14.9006C53.2454 14.6761 53.4585 14.375 53.6005 13.9972C53.7454 13.6165 53.8178 13.1932 53.8178 12.7273C53.8178 12.267 53.7468 11.8523 53.6048 11.483C53.4656 11.1108 53.2539 10.8168 52.9698 10.6009C52.6886 10.3821 52.3349 10.2727 51.9087 10.2727C51.4996 10.2727 51.1559 10.3764 50.8775 10.5838C50.5991 10.7884 50.3888 11.0753 50.2468 11.4446C50.1048 11.8111 50.0337 12.2386 50.0337 12.7273ZM57.3675 7.27273V16H56.3619V7.27273H57.3675ZM61.9538 16.1364C61.3232 16.1364 60.7791 15.9972 60.3217 15.7188C59.8672 15.4375 59.5163 15.0455 59.2692 14.5426C59.0249 14.0369 58.9027 13.4489 58.9027 12.7784C58.9027 12.108 59.0249 11.517 59.2692 11.0057C59.5163 10.4915 59.8601 10.0909 60.3004 9.80398C60.7436 9.5142 61.2607 9.36932 61.8516 9.36932C62.1925 9.36932 62.5291 9.42614 62.8615 9.53977C63.1939 9.65341 63.4964 9.83807 63.7692 10.0938C64.0419 10.3466 64.2592 10.6818 64.4212 11.0994C64.5831 11.517 64.6641 12.0312 64.6641 12.642V13.0682H59.6186V12.1989H63.6413C63.6413 11.8295 63.5675 11.5 63.4197 11.2102C63.2749 10.9205 63.0675 10.6918 62.7976 10.5241C62.5305 10.3565 62.2152 10.2727 61.8516 10.2727C61.451 10.2727 61.1044 10.3722 60.8118 10.571C60.522 10.767 60.299 11.0227 60.1428 11.3381C59.9865 11.6534 59.9084 11.9915 59.9084 12.3523V12.9318C59.9084 13.4261 59.9936 13.8452 60.1641 14.1889C60.3374 14.5298 60.5774 14.7898 60.8842 14.9688C61.1911 15.1449 61.5476 15.233 61.9538 15.233C62.218 15.233 62.4567 15.196 62.6697 15.1222C62.8857 15.0455 63.0717 14.9318 63.228 14.7812C63.3842 14.6278 63.505 14.4375 63.5902 14.2102L64.5618 14.483C64.4595 14.8125 64.2876 15.1023 64.0462 15.3523C63.8047 15.5994 63.5064 15.7926 63.1513 15.9318C62.7962 16.0682 62.397 16.1364 61.9538 16.1364Z" fill="#30A952"/>
</svg>
