<svg width="252" height="40" viewBox="0 0 252 40" fill="none" xmlns="http://www.w3.org/2000/svg">
<g clip-path="url(#clip0_1122_5436)">
<path d="M25.625 19.375V23.125L26.875 21.875" stroke="#2C8AD3" stroke-width="1.5" stroke-linecap="round" stroke-linejoin="round"/>
<path d="M25.625 23.125L24.375 21.875" stroke="#2C8AD3" stroke-width="1.5" stroke-linecap="round" stroke-linejoin="round"/>
<path d="M33.75 18.75V21.875C33.75 25 32.5 26.25 29.375 26.25H25.625C22.5 26.25 21.25 25 21.25 21.875V18.125C21.25 15 22.5 13.75 25.625 13.75H28.75" stroke="#2C8AD3" stroke-width="1.5" stroke-linecap="round" stroke-linejoin="round"/>
<path d="M33.75 18.75H31.25C29.375 18.75 28.75 18.125 28.75 16.25V13.75L33.75 18.75Z" stroke="#2C8AD3" stroke-width="1.5" stroke-linecap="round" stroke-linejoin="round"/>
<path d="M46.4545 25.5H43.0043V15.3182H46.5241C47.535 15.3182 48.4034 15.522 49.1293 15.9297C49.8584 16.334 50.4186 16.9157 50.8097 17.6747C51.2008 18.4337 51.3963 19.3419 51.3963 20.3991C51.3963 21.4598 51.1991 22.3712 50.8047 23.1335C50.4136 23.8958 49.8485 24.4808 49.1094 24.8885C48.3736 25.2962 47.4886 25.5 46.4545 25.5ZM44.8487 23.9041H46.3651C47.0743 23.9041 47.666 23.7749 48.1399 23.5163C48.6139 23.2545 48.9702 22.8651 49.2088 22.348C49.4474 21.8277 49.5668 21.178 49.5668 20.3991C49.5668 19.6203 49.4474 18.974 49.2088 18.4602C48.9702 17.9432 48.6172 17.5571 48.1499 17.3018C47.6858 17.0433 47.1091 16.9141 46.4197 16.9141H44.8487V23.9041ZM56.4002 25.6491C55.6545 25.6491 55.0082 25.4851 54.4613 25.157C53.9144 24.8288 53.4902 24.3698 53.1886 23.7798C52.8903 23.1899 52.7411 22.5005 52.7411 21.7116C52.7411 20.9228 52.8903 20.2318 53.1886 19.6385C53.4902 19.0452 53.9144 18.5845 54.4613 18.2564C55.0082 17.9283 55.6545 17.7642 56.4002 17.7642C57.146 17.7642 57.7923 17.9283 58.3391 18.2564C58.886 18.5845 59.3086 19.0452 59.6069 19.6385C59.9085 20.2318 60.0593 20.9228 60.0593 21.7116C60.0593 22.5005 59.9085 23.1899 59.6069 23.7798C59.3086 24.3698 58.886 24.8288 58.3391 25.157C57.7923 25.4851 57.146 25.6491 56.4002 25.6491ZM56.4102 24.2074C56.8145 24.2074 57.1526 24.0964 57.4244 23.8743C57.6961 23.6489 57.8983 23.3473 58.0309 22.9695C58.1668 22.5916 58.2347 22.1707 58.2347 21.7067C58.2347 21.2393 58.1668 20.8168 58.0309 20.4389C57.8983 20.0578 57.6961 19.7545 57.4244 19.5291C57.1526 19.3037 56.8145 19.1911 56.4102 19.1911C55.9959 19.1911 55.6512 19.3037 55.3761 19.5291C55.1043 19.7545 54.9004 20.0578 54.7646 20.4389C54.632 20.8168 54.5657 21.2393 54.5657 21.7067C54.5657 22.1707 54.632 22.5916 54.7646 22.9695C54.9004 23.3473 55.1043 23.6489 55.3761 23.8743C55.6512 24.0964 55.9959 24.2074 56.4102 24.2074ZM62.9441 25.5L60.7864 17.8636H62.6209L63.9632 23.233H64.0328L65.405 17.8636H67.2196L68.5918 23.2031H68.6664L69.9888 17.8636H71.8283L69.6657 25.5H67.7914L66.3596 20.3395H66.2551L64.8233 25.5H62.9441ZM74.8846 21.0256V25.5H73.0849V17.8636H74.805V19.1612H74.8945C75.0702 18.7337 75.3503 18.3939 75.7347 18.142C76.1225 17.8902 76.6014 17.7642 77.1715 17.7642C77.6985 17.7642 78.1576 17.8769 78.5487 18.1023C78.9431 18.3277 79.248 18.6541 79.4634 19.0817C79.6822 19.5092 79.7899 20.0279 79.7866 20.6378V25.5H77.9869V20.9162C77.9869 20.4058 77.8543 20.0064 77.5891 19.718C77.3273 19.4297 76.9644 19.2855 76.5004 19.2855C76.1855 19.2855 75.9054 19.3551 75.6602 19.4943C75.4182 19.6302 75.2276 19.8274 75.0884 20.0859C74.9525 20.3445 74.8846 20.6577 74.8846 21.0256ZM83.4158 15.3182V25.5H81.6161V15.3182H83.4158ZM88.5975 25.6491C87.8517 25.6491 87.2054 25.4851 86.6586 25.157C86.1117 24.8288 85.6874 24.3698 85.3858 23.7798C85.0875 23.1899 84.9384 22.5005 84.9384 21.7116C84.9384 20.9228 85.0875 20.2318 85.3858 19.6385C85.6874 19.0452 86.1117 18.5845 86.6586 18.2564C87.2054 17.9283 87.8517 17.7642 88.5975 17.7642C89.3432 17.7642 89.9895 17.9283 90.5364 18.2564C91.0833 18.5845 91.5059 19.0452 91.8042 19.6385C92.1058 20.2318 92.2566 20.9228 92.2566 21.7116C92.2566 22.5005 92.1058 23.1899 91.8042 23.7798C91.5059 24.3698 91.0833 24.8288 90.5364 25.157C89.9895 25.4851 89.3432 25.6491 88.5975 25.6491ZM88.6074 24.2074C89.0118 24.2074 89.3498 24.0964 89.6216 23.8743C89.8934 23.6489 90.0956 23.3473 90.2282 22.9695C90.3641 22.5916 90.432 22.1707 90.432 21.7067C90.432 21.2393 90.3641 20.8168 90.2282 20.4389C90.0956 20.0578 89.8934 19.7545 89.6216 19.5291C89.3498 19.3037 89.0118 19.1911 88.6074 19.1911C88.1931 19.1911 87.8484 19.3037 87.5733 19.5291C87.3016 19.7545 87.0977 20.0578 86.9618 20.4389C86.8292 20.8168 86.763 21.2393 86.763 21.7067C86.763 22.1707 86.8292 22.5916 86.9618 22.9695C87.0977 23.3473 87.3016 23.6489 87.5733 23.8743C87.8484 24.0964 88.1931 24.2074 88.6074 24.2074ZM95.9815 25.6541C95.4976 25.6541 95.0618 25.5679 94.674 25.3956C94.2895 25.2199 93.9846 24.9614 93.7592 24.62C93.5372 24.2786 93.4261 23.8577 93.4261 23.3572C93.4261 22.9264 93.5057 22.5701 93.6648 22.2884C93.8239 22.0066 94.041 21.7812 94.3161 21.6122C94.5911 21.4432 94.901 21.3156 95.2457 21.2294C95.5938 21.1399 95.9534 21.0753 96.3246 21.0355C96.772 20.9891 97.1349 20.9477 97.4134 20.9112C97.6918 20.8714 97.8939 20.8118 98.0199 20.7322C98.1491 20.6494 98.2138 20.5218 98.2138 20.3494V20.3196C98.2138 19.9451 98.1027 19.6551 97.8807 19.4496C97.6586 19.2441 97.3388 19.1413 96.9212 19.1413C96.4804 19.1413 96.1307 19.2375 95.8722 19.4297C95.617 19.6219 95.4446 19.849 95.3551 20.1108L93.6747 19.8722C93.8073 19.4081 94.026 19.0204 94.331 18.7088C94.6359 18.3939 95.0088 18.1586 95.4496 18.0028C95.8904 17.8438 96.3776 17.7642 96.9112 17.7642C97.2791 17.7642 97.6454 17.8073 98.0099 17.8935C98.3745 17.9796 98.7076 18.1222 99.0092 18.321C99.3108 18.5166 99.5528 18.7834 99.7351 19.1214C99.9207 19.4595 100.013 19.8821 100.013 20.3892V25.5H98.2834V24.451H98.2237C98.1143 24.6631 97.9602 24.862 97.7614 25.0476C97.5658 25.2299 97.3189 25.3774 97.0206 25.4901C96.7256 25.5994 96.3793 25.6541 95.9815 25.6541ZM96.4489 24.3317C96.8101 24.3317 97.1233 24.2604 97.3885 24.1179C97.6536 23.9721 97.8575 23.7798 98 23.5412C98.1458 23.3026 98.2188 23.0424 98.2188 22.7607V21.8608C98.1624 21.9072 98.0663 21.9503 97.9304 21.9901C97.7978 22.0298 97.6487 22.0646 97.483 22.0945C97.3172 22.1243 97.1532 22.1508 96.9908 22.174C96.8284 22.1972 96.6875 22.2171 96.5682 22.2337C96.2997 22.2701 96.0594 22.3298 95.8473 22.4126C95.6352 22.4955 95.4678 22.6115 95.3452 22.7607C95.2225 22.9065 95.1612 23.0954 95.1612 23.3274C95.1612 23.6589 95.2822 23.9091 95.5241 24.0781C95.7661 24.2472 96.0743 24.3317 96.4489 24.3317ZM104.657 25.6342C104.057 25.6342 103.52 25.4801 103.046 25.1719C102.572 24.8636 102.198 24.4162 101.923 23.8295C101.647 23.2429 101.51 22.5303 101.51 21.6918C101.51 20.8433 101.649 20.1274 101.928 19.544C102.209 18.9574 102.589 18.5149 103.066 18.2166C103.543 17.915 104.075 17.7642 104.662 17.7642C105.109 17.7642 105.477 17.8404 105.766 17.9929C106.054 18.142 106.283 18.3227 106.452 18.5348C106.621 18.7436 106.752 18.9408 106.844 19.1264H106.919V15.3182H108.724V25.5H106.954V24.2969H106.844C106.752 24.4825 106.617 24.6797 106.442 24.8885C106.266 25.094 106.034 25.2696 105.746 25.4155C105.457 25.5613 105.094 25.6342 104.657 25.6342ZM105.159 24.1577C105.54 24.1577 105.865 24.0549 106.134 23.8494C106.402 23.6406 106.606 23.3506 106.745 22.9794C106.884 22.6082 106.954 22.1757 106.954 21.6818C106.954 21.188 106.884 20.7588 106.745 20.3942C106.609 20.0296 106.407 19.7462 106.138 19.544C105.873 19.3419 105.547 19.2408 105.159 19.2408C104.758 19.2408 104.423 19.3452 104.155 19.554C103.886 19.7628 103.684 20.0511 103.548 20.419C103.412 20.7869 103.344 21.2079 103.344 21.6818C103.344 22.1591 103.412 22.585 103.548 22.9595C103.688 23.3307 103.891 23.6241 104.16 23.8395C104.432 24.0516 104.765 24.1577 105.159 24.1577ZM122.909 18.7536H121.05C120.997 18.4486 120.899 18.1785 120.756 17.9432C120.614 17.7045 120.436 17.5024 120.224 17.3366C120.012 17.1709 119.77 17.0466 119.498 16.9638C119.23 16.8776 118.94 16.8345 118.628 16.8345C118.075 16.8345 117.584 16.9737 117.157 17.2521C116.729 17.5272 116.394 17.9316 116.153 18.4652C115.911 18.9955 115.79 19.6435 115.79 20.4091C115.79 21.188 115.911 21.8442 116.153 22.3778C116.398 22.9081 116.733 23.3092 117.157 23.581C117.584 23.8494 118.073 23.9837 118.623 23.9837C118.928 23.9837 119.213 23.9439 119.479 23.8643C119.747 23.7815 119.987 23.6605 120.199 23.5014C120.415 23.3423 120.595 23.1468 120.741 22.9148C120.89 22.6828 120.993 22.4176 121.05 22.1193L122.909 22.1293C122.839 22.6132 122.689 23.0672 122.456 23.4915C122.228 23.9157 121.928 24.2902 121.557 24.6151C121.185 24.9366 120.751 25.1884 120.254 25.3707C119.757 25.5497 119.205 25.6392 118.599 25.6392C117.704 25.6392 116.905 25.4321 116.202 25.0178C115.5 24.6035 114.946 24.0052 114.542 23.223C114.137 22.4408 113.935 21.5028 113.935 20.4091C113.935 19.312 114.139 18.3741 114.547 17.5952C114.954 16.813 115.51 16.2147 116.212 15.8004C116.915 15.3861 117.71 15.179 118.599 15.179C119.165 15.179 119.692 15.2585 120.18 15.4176C120.667 15.5767 121.101 15.8104 121.482 16.1186C121.863 16.4235 122.176 16.7981 122.422 17.2422C122.67 17.683 122.833 18.1868 122.909 18.7536ZM125.96 15.3182L128.61 23.3324H128.714L131.359 15.3182H133.388L129.798 25.5H127.521L123.937 15.3182H125.96Z" fill="#2C8AD3"/>
</g>
<defs>
<clipPath id="clip0_1122_5436">
<rect width="154" height="40" fill="white"/>
</clipPath>
</defs>
</svg>
