<svg width="25" height="25" viewBox="0 0 25 25" fill="none" xmlns="http://www.w3.org/2000/svg">
<path d="M14.7184 9.56491L9.6584 14.6249C9.0084 13.9749 8.6084 13.0849 8.6084 12.0949C8.6084 10.1149 10.2084 8.51491 12.1884 8.51491C13.1784 8.51491 14.0684 8.91491 14.7184 9.56491Z" stroke="#586A84" stroke-width="1.5" stroke-linecap="round" stroke-linejoin="round"/>
<path d="M18.0083 5.86491C16.2583 4.54491 14.2583 3.82491 12.1883 3.82491C8.65832 3.82491 5.36832 5.90491 3.07832 9.50491C2.17832 10.9149 2.17832 13.2849 3.07832 14.6949C3.86832 15.9349 4.78832 17.0049 5.78832 17.8649" stroke="#586A84" stroke-width="1.5" stroke-linecap="round" stroke-linejoin="round"/>
<path d="M8.6084 19.6249C9.7484 20.1049 10.9584 20.3649 12.1884 20.3649C15.7184 20.3649 19.0084 18.2849 21.2984 14.6849C22.1984 13.2749 22.1984 10.9049 21.2984 9.4949C20.9684 8.9749 20.6084 8.4849 20.2384 8.0249" stroke="#586A84" stroke-width="1.5" stroke-linecap="round" stroke-linejoin="round"/>
<path d="M15.6989 12.7949C15.4389 14.2049 14.2889 15.3549 12.8789 15.6149" stroke="#586A84" stroke-width="1.5" stroke-linecap="round" stroke-linejoin="round"/>
<path d="M9.65848 14.6249L2.18848 22.0949" stroke="#586A84" stroke-width="1.5" stroke-linecap="round" stroke-linejoin="round"/>
<path d="M22.1888 2.09491L14.7188 9.56491" stroke="#586A84" stroke-width="1.5" stroke-linecap="round" stroke-linejoin="round"/>
</svg>
