<svg width="15" height="16" viewBox="0 0 15 16" fill="none" xmlns="http://www.w3.org/2000/svg">
<path d="M9.7377 8.00001C9.7377 9.23751 8.7377 10.2375 7.5002 10.2375C6.2627 10.2375 5.2627 9.23751 5.2627 8.00001C5.2627 6.76251 6.2627 5.76251 7.5002 5.76251C8.7377 5.76251 9.7377 6.76251 9.7377 8.00001Z" stroke="#848484" stroke-width="1.5" stroke-linecap="round" stroke-linejoin="round"/>
<path d="M7.50039 13.1688C9.70664 13.1688 11.7629 11.8688 13.1941 9.61876C13.7566 8.73751 13.7566 7.25626 13.1941 6.37501C11.7629 4.12501 9.70664 2.82501 7.50039 2.82501C5.29414 2.82501 3.23789 4.12501 1.80664 6.37501C1.24414 7.25626 1.24414 8.73751 1.80664 9.61876C3.23789 11.8688 5.29414 13.1688 7.50039 13.1688Z" stroke="#848484" stroke-width="1.5" stroke-linecap="round" stroke-linejoin="round"/>
</svg>
