<svg width="138" height="40" viewBox="0 0 138 40" fill="none" xmlns="http://www.w3.org/2000/svg">
<g clip-path="url(#clip0_11046_10699)">
<rect x="0.5" y="0.5" width="137" height="39" rx="4.5" stroke="#2C8AD3"/>
<path d="M23.75 20H31.25" stroke="#2C8AD3" stroke-width="1.5" stroke-linecap="round" stroke-linejoin="round"/>
<path d="M27.5 23.75V16.25" stroke="#2C8AD3" stroke-width="1.5" stroke-linecap="round" stroke-linejoin="round"/>
<path d="M44.8487 15.3182V25.5H43.0043V15.3182H44.8487ZM48.5662 21.0256V25.5H46.7665V17.8636H48.4867V19.1612H48.5762C48.7518 18.7337 49.0319 18.3939 49.4164 18.142C49.8042 17.8902 50.2831 17.7642 50.8532 17.7642C51.3801 17.7642 51.8392 17.8769 52.2303 18.1023C52.6247 18.3277 52.9296 18.6541 53.1451 19.0817C53.3638 19.5092 53.4715 20.0279 53.4682 20.6378V25.5H51.6685V20.9162C51.6685 20.4058 51.5359 20.0064 51.2708 19.718C51.0089 19.4297 50.646 19.2855 50.182 19.2855C49.8671 19.2855 49.5871 19.3551 49.3418 19.4943C49.0998 19.6302 48.9093 19.8274 48.7701 20.0859C48.6342 20.3445 48.5662 20.6577 48.5662 21.0256ZM60.9927 25.5L58.1191 15.3182H60.1028L61.9373 22.8004H62.0318L63.9906 15.3182H65.7953L67.7591 22.8054H67.8485L69.6831 15.3182H71.6667L68.7931 25.5H66.9735L64.9352 18.3558H64.8556L62.8123 25.5H60.9927ZM74.6658 21.0256V25.5H72.8661V15.3182H74.6261V19.1612H74.7156C74.8945 18.7304 75.1713 18.3906 75.5458 18.142C75.9237 17.8902 76.4042 17.7642 76.9876 17.7642C77.5179 17.7642 77.9802 17.8752 78.3746 18.0973C78.7691 18.3194 79.074 18.6442 79.2894 19.0717C79.5082 19.4993 79.6175 20.0213 79.6175 20.6378V25.5H77.8178V20.9162C77.8178 20.4025 77.6853 20.0031 77.4201 19.718C77.1583 19.4297 76.7904 19.2855 76.3164 19.2855C75.9982 19.2855 75.7132 19.3551 75.4613 19.4943C75.2127 19.6302 75.0172 19.8274 74.8746 20.0859C74.7354 20.3445 74.6658 20.6577 74.6658 21.0256ZM81.4521 25.5V17.8636H83.2518V25.5H81.4521ZM82.3569 16.7798C82.0719 16.7798 81.8266 16.6854 81.6211 16.4964C81.4156 16.3042 81.3129 16.0739 81.3129 15.8054C81.3129 15.5336 81.4156 15.3033 81.6211 15.1143C81.8266 14.9221 82.0719 14.826 82.3569 14.826C82.6452 14.826 82.8905 14.9221 83.0927 15.1143C83.2982 15.3033 83.4009 15.5336 83.4009 15.8054C83.4009 16.0739 83.2982 16.3042 83.0927 16.4964C82.8905 16.6854 82.6452 16.7798 82.3569 16.7798ZM91.138 19.8821L89.4973 20.0611C89.4509 19.8954 89.3697 19.7396 89.2537 19.5938C89.141 19.4479 88.9886 19.3303 88.7963 19.2408C88.6041 19.1513 88.3688 19.1065 88.0904 19.1065C87.7158 19.1065 87.401 19.1877 87.1458 19.3501C86.8939 19.5125 86.7696 19.723 86.7729 19.9815C86.7696 20.2036 86.8508 20.3842 87.0165 20.5234C87.1855 20.6626 87.464 20.777 87.8517 20.8665L89.1543 21.1449C89.8768 21.3007 90.4138 21.5476 90.7651 21.8857C91.1197 22.2237 91.2987 22.6662 91.302 23.2131C91.2987 23.6937 91.1578 24.1179 90.8794 24.4858C90.6043 24.8504 90.2215 25.1354 89.731 25.3409C89.2405 25.5464 88.677 25.6491 88.0407 25.6491C87.106 25.6491 86.3536 25.4536 85.7836 25.0625C85.2135 24.6681 84.8738 24.1196 84.7644 23.4169L86.5194 23.2479C86.5989 23.5926 86.7679 23.8527 87.0265 24.0284C87.285 24.2041 87.6214 24.2919 88.0357 24.2919C88.4632 24.2919 88.8063 24.2041 89.0648 24.0284C89.3266 23.8527 89.4576 23.6357 89.4576 23.3771C89.4576 23.1584 89.373 22.9777 89.204 22.8352C89.0383 22.6927 88.7798 22.5833 88.4284 22.5071L87.1259 22.2337C86.3934 22.0812 85.8515 21.8243 85.5002 21.4631C85.1489 21.0985 84.9748 20.6378 84.9782 20.081C84.9748 19.6103 85.1025 19.2027 85.361 18.858C85.6228 18.5099 85.9857 18.2415 86.4498 18.0526C86.9171 17.8603 87.4557 17.7642 88.0655 17.7642C88.9604 17.7642 89.6647 17.9548 90.1784 18.3359C90.6955 18.7171 91.0153 19.2325 91.138 19.8821ZM96.5993 17.8636V19.2557H92.2093V17.8636H96.5993ZM93.2931 16.0341H95.0929V23.2031C95.0929 23.4451 95.1293 23.6307 95.2022 23.7599C95.2785 23.8859 95.3779 23.9721 95.5005 24.0185C95.6232 24.0649 95.7591 24.0881 95.9082 24.0881C96.0209 24.0881 96.1236 24.0798 96.2164 24.0632C96.3126 24.0466 96.3855 24.0317 96.4352 24.0185L96.7385 25.4254C96.6423 25.4586 96.5048 25.495 96.3258 25.5348C96.1502 25.5746 95.9347 25.5978 95.6795 25.6044C95.2288 25.6177 94.8227 25.5497 94.4615 25.4006C94.1002 25.2481 93.8135 25.0128 93.6014 24.6946C93.3926 24.3764 93.2898 23.9787 93.2931 23.5014V16.0341ZM100.068 15.3182V25.5H98.2685V15.3182H100.068ZM101.919 25.5V17.8636H103.719V25.5H101.919ZM102.824 16.7798C102.539 16.7798 102.293 16.6854 102.088 16.4964C101.882 16.3042 101.78 16.0739 101.78 15.8054C101.78 15.5336 101.882 15.3033 102.088 15.1143C102.293 14.9221 102.539 14.826 102.824 14.826C103.112 14.826 103.357 14.9221 103.559 15.1143C103.765 15.3033 103.868 15.5336 103.868 15.8054C103.868 16.0739 103.765 16.3042 103.559 16.4964C103.357 16.6854 103.112 16.7798 102.824 16.7798ZM111.605 19.8821L109.964 20.0611C109.918 19.8954 109.837 19.7396 109.721 19.5938C109.608 19.4479 109.455 19.3303 109.263 19.2408C109.071 19.1513 108.836 19.1065 108.557 19.1065C108.183 19.1065 107.868 19.1877 107.613 19.3501C107.361 19.5125 107.236 19.723 107.24 19.9815C107.236 20.2036 107.318 20.3842 107.483 20.5234C107.652 20.6626 107.931 20.777 108.319 20.8665L109.621 21.1449C110.344 21.3007 110.881 21.5476 111.232 21.8857C111.587 22.2237 111.766 22.6662 111.769 23.2131C111.766 23.6937 111.625 24.1179 111.346 24.4858C111.071 24.8504 110.688 25.1354 110.198 25.3409C109.707 25.5464 109.144 25.6491 108.507 25.6491C107.573 25.6491 106.82 25.4536 106.25 25.0625C105.68 24.6681 105.341 24.1196 105.231 23.4169L106.986 23.2479C107.066 23.5926 107.235 23.8527 107.493 24.0284C107.752 24.2041 108.088 24.2919 108.502 24.2919C108.93 24.2919 109.273 24.2041 109.532 24.0284C109.793 23.8527 109.924 23.6357 109.924 23.3771C109.924 23.1584 109.84 22.9777 109.671 22.8352C109.505 22.6927 109.247 22.5833 108.895 22.5071L107.593 22.2337C106.86 22.0812 106.318 21.8243 105.967 21.4631C105.616 21.0985 105.442 20.6378 105.445 20.081C105.442 19.6103 105.569 19.2027 105.828 18.858C106.09 18.5099 106.453 18.2415 106.917 18.0526C107.384 17.8603 107.922 17.7642 108.532 17.7642C109.427 17.7642 110.132 17.9548 110.645 18.3359C111.162 18.7171 111.482 19.2325 111.605 19.8821ZM117.066 17.8636V19.2557H112.676V17.8636H117.066ZM113.76 16.0341H115.56V23.2031C115.56 23.4451 115.596 23.6307 115.669 23.7599C115.745 23.8859 115.845 23.9721 115.967 24.0185C116.09 24.0649 116.226 24.0881 116.375 24.0881C116.488 24.0881 116.59 24.0798 116.683 24.0632C116.779 24.0466 116.852 24.0317 116.902 24.0185L117.205 25.4254C117.109 25.4586 116.972 25.495 116.793 25.5348C116.617 25.5746 116.402 25.5978 116.146 25.6044C115.696 25.6177 115.29 25.5497 114.928 25.4006C114.567 25.2481 114.28 25.0128 114.068 24.6946C113.859 24.3764 113.757 23.9787 113.76 23.5014V16.0341Z" fill="#2C8AD3"/>
</g>
<defs>
<clipPath id="clip0_11046_10699">
<rect width="138" height="40" fill="white"/>
</clipPath>
</defs>
</svg>
