<svg width="105" height="23" viewBox="0 0 105 23" fill="none" xmlns="http://www.w3.org/2000/svg">
<rect x="0.5" y="0.5" width="104" height="22" rx="11" stroke="#CF1D1D"/>
<path d="M22.9773 7.27273V16H21.9545L17.1989 9.14773H17.1136V16H16.0568V7.27273H17.0795L21.8523 14.142H21.9375V7.27273H22.9773ZM27.6147 16.1364C27.0238 16.1364 26.5053 15.9957 26.0593 15.7145C25.6161 15.4332 25.2695 15.0398 25.0195 14.5341C24.7724 14.0284 24.6488 13.4375 24.6488 12.7614C24.6488 12.0795 24.7724 11.4844 25.0195 10.9759C25.2695 10.4673 25.6161 10.0724 26.0593 9.79119C26.5053 9.50994 27.0238 9.36932 27.6147 9.36932C28.2056 9.36932 28.7227 9.50994 29.1658 9.79119C29.6119 10.0724 29.9585 10.4673 30.2056 10.9759C30.4556 11.4844 30.5806 12.0795 30.5806 12.7614C30.5806 13.4375 30.4556 14.0284 30.2056 14.5341C29.9585 15.0398 29.6119 15.4332 29.1658 15.7145C28.7227 15.9957 28.2056 16.1364 27.6147 16.1364ZM27.6147 15.233C28.0636 15.233 28.4329 15.1179 28.7227 14.8878C29.0124 14.6577 29.2269 14.3551 29.3661 13.9801C29.5053 13.6051 29.5749 13.1989 29.5749 12.7614C29.5749 12.3239 29.5053 11.9162 29.3661 11.5384C29.2269 11.1605 29.0124 10.8551 28.7227 10.6222C28.4329 10.3892 28.0636 10.2727 27.6147 10.2727C27.1658 10.2727 26.7965 10.3892 26.5067 10.6222C26.217 10.8551 26.0025 11.1605 25.8633 11.5384C25.7241 11.9162 25.6545 12.3239 25.6545 12.7614C25.6545 13.1989 25.7241 13.6051 25.8633 13.9801C26.0025 14.3551 26.217 14.6577 26.5067 14.8878C26.7965 15.1179 27.1658 15.233 27.6147 15.233ZM34.9624 9.45455V10.3068H31.5703V9.45455H34.9624ZM32.5589 7.88636H33.5646V14.125C33.5646 14.4091 33.6058 14.6222 33.6882 14.7642C33.7734 14.9034 33.8814 14.9972 34.0121 15.0455C34.1456 15.0909 34.2862 15.1136 34.4339 15.1136C34.5447 15.1136 34.6357 15.108 34.7067 15.0966C34.7777 15.0824 34.8345 15.071 34.8771 15.0625L35.0817 15.9659C35.0135 15.9915 34.9183 16.017 34.7962 16.0426C34.674 16.071 34.5192 16.0852 34.3317 16.0852C34.0476 16.0852 33.7692 16.0241 33.4964 15.902C33.2266 15.7798 33.0021 15.5938 32.8232 15.3438C32.647 15.0938 32.5589 14.7784 32.5589 14.3977V7.88636ZM40.3445 16H39.2365L42.4411 7.27273H43.532L46.7365 16H45.6286L43.0206 8.65341H42.9524L40.3445 16ZM40.7536 12.5909H45.2195V13.5284H40.7536V12.5909ZM52.4915 9.45455L50.071 16H49.0483L46.6278 9.45455H47.7188L49.5256 14.6705H49.5938L51.4006 9.45455H52.4915ZM55.5458 16.1534C55.131 16.1534 54.7546 16.0753 54.4165 15.919C54.0785 15.7599 53.81 15.5312 53.6112 15.233C53.4123 14.9318 53.3129 14.5682 53.3129 14.142C53.3129 13.767 53.3867 13.4631 53.5344 13.2301C53.6822 12.9943 53.8796 12.8097 54.1268 12.6761C54.3739 12.5426 54.6467 12.4432 54.945 12.3778C55.2461 12.3097 55.5487 12.2557 55.8526 12.2159C56.2504 12.1648 56.5728 12.1264 56.82 12.1009C57.07 12.0724 57.2518 12.0256 57.3654 11.9602C57.4819 11.8949 57.5401 11.7812 57.5401 11.6193V11.5852C57.5401 11.1648 57.4251 10.8381 57.195 10.6051C56.9677 10.3722 56.6225 10.2557 56.1594 10.2557C55.6793 10.2557 55.3029 10.3608 55.0302 10.571C54.7575 10.7812 54.5657 11.0057 54.4549 11.2443L53.5004 10.9034C53.6708 10.5057 53.8981 10.196 54.1822 9.97443C54.4691 9.75 54.7816 9.59375 55.1197 9.50568C55.4606 9.41477 55.7958 9.36932 56.1254 9.36932C56.3356 9.36932 56.5771 9.39489 56.8498 9.44602C57.1254 9.49432 57.391 9.59517 57.6467 9.74858C57.9052 9.90199 58.1197 10.1335 58.2901 10.4432C58.4606 10.7528 58.5458 11.1676 58.5458 11.6875V16H57.5401V15.1136H57.489C57.4208 15.2557 57.3072 15.4077 57.1481 15.5696C56.989 15.7315 56.7773 15.8693 56.5131 15.983C56.2489 16.0966 55.9265 16.1534 55.5458 16.1534ZM55.6992 15.25C56.0969 15.25 56.4322 15.1719 56.7049 15.0156C56.9805 14.8594 57.1879 14.6577 57.3271 14.4105C57.4691 14.1634 57.5401 13.9034 57.5401 13.6307V12.7102C57.4975 12.7614 57.4038 12.8082 57.2589 12.8509C57.1168 12.8906 56.9521 12.9261 56.7646 12.9574C56.5799 12.9858 56.3995 13.0114 56.2234 13.0341C56.0501 13.054 55.9094 13.071 55.8015 13.0852C55.5401 13.1193 55.2958 13.1747 55.0685 13.2514C54.8441 13.3253 54.6623 13.4375 54.5231 13.5881C54.3867 13.7358 54.3185 13.9375 54.3185 14.1932C54.3185 14.5426 54.4478 14.8068 54.7063 14.9858C54.9677 15.1619 55.2987 15.25 55.6992 15.25ZM60.3814 16V9.45455H61.3871V16H60.3814ZM60.8928 8.36364C60.6967 8.36364 60.5277 8.29688 60.3857 8.16335C60.2464 8.02983 60.1768 7.86932 60.1768 7.68182C60.1768 7.49432 60.2464 7.33381 60.3857 7.20028C60.5277 7.06676 60.6967 7 60.8928 7C61.0888 7 61.2564 7.06676 61.3956 7.20028C61.5376 7.33381 61.6087 7.49432 61.6087 7.68182C61.6087 7.86932 61.5376 8.02983 61.3956 8.16335C61.2564 8.29688 61.0888 8.36364 60.8928 8.36364ZM64.2347 7.27273V16H63.229V7.27273H64.2347ZM68.0028 16.1534C67.5881 16.1534 67.2116 16.0753 66.8736 15.919C66.5355 15.7599 66.267 15.5312 66.0682 15.233C65.8693 14.9318 65.7699 14.5682 65.7699 14.142C65.7699 13.767 65.8438 13.4631 65.9915 13.2301C66.1392 12.9943 66.3366 12.8097 66.5838 12.6761C66.831 12.5426 67.1037 12.4432 67.402 12.3778C67.7031 12.3097 68.0057 12.2557 68.3097 12.2159C68.7074 12.1648 69.0298 12.1264 69.277 12.1009C69.527 12.0724 69.7088 12.0256 69.8224 11.9602C69.9389 11.8949 69.9972 11.7812 69.9972 11.6193V11.5852C69.9972 11.1648 69.8821 10.8381 69.652 10.6051C69.4247 10.3722 69.0795 10.2557 68.6165 10.2557C68.1364 10.2557 67.7599 10.3608 67.4872 10.571C67.2145 10.7812 67.0227 11.0057 66.9119 11.2443L65.9574 10.9034C66.1278 10.5057 66.3551 10.196 66.6392 9.97443C66.9261 9.75 67.2386 9.59375 67.5767 9.50568C67.9176 9.41477 68.2528 9.36932 68.5824 9.36932C68.7926 9.36932 69.0341 9.39489 69.3068 9.44602C69.5824 9.49432 69.848 9.59517 70.1037 9.74858C70.3622 9.90199 70.5767 10.1335 70.7472 10.4432C70.9176 10.7528 71.0028 11.1676 71.0028 11.6875V16H69.9972V15.1136H69.946C69.8778 15.2557 69.7642 15.4077 69.6051 15.5696C69.446 15.7315 69.2344 15.8693 68.9702 15.983C68.706 16.0966 68.3835 16.1534 68.0028 16.1534ZM68.1562 15.25C68.554 15.25 68.8892 15.1719 69.1619 15.0156C69.4375 14.8594 69.6449 14.6577 69.7841 14.4105C69.9261 14.1634 69.9972 13.9034 69.9972 13.6307V12.7102C69.9545 12.7614 69.8608 12.8082 69.7159 12.8509C69.5739 12.8906 69.4091 12.9261 69.2216 12.9574C69.0369 12.9858 68.8565 13.0114 68.6804 13.0341C68.5071 13.054 68.3665 13.071 68.2585 13.0852C67.9972 13.1193 67.7528 13.1747 67.5256 13.2514C67.3011 13.3253 67.1193 13.4375 66.9801 13.5881C66.8438 13.7358 66.7756 13.9375 66.7756 14.1932C66.7756 14.5426 66.9048 14.8068 67.1634 14.9858C67.4247 15.1619 67.7557 15.25 68.1562 15.25ZM72.9748 16V7.27273H73.9805V10.4943H74.0657C74.1396 10.3807 74.2418 10.2358 74.3725 10.0597C74.506 9.88068 74.6964 9.72159 74.9435 9.58239C75.1935 9.44034 75.5316 9.36932 75.9577 9.36932C76.5089 9.36932 76.9947 9.5071 77.4151 9.78267C77.8356 10.0582 78.1637 10.4489 78.3995 10.9545C78.6353 11.4602 78.7532 12.0568 78.7532 12.7443C78.7532 13.4375 78.6353 14.0384 78.3995 14.5469C78.1637 15.0526 77.837 15.4446 77.4194 15.723C77.0018 15.9986 76.5202 16.1364 75.9748 16.1364C75.5543 16.1364 75.2177 16.0668 74.9648 15.9276C74.712 15.7855 74.5174 15.625 74.381 15.446C74.2447 15.2642 74.1396 15.1136 74.0657 14.9943H73.9464V16H72.9748ZM73.9634 12.7273C73.9634 13.2216 74.0359 13.6577 74.1808 14.0355C74.3256 14.4105 74.5373 14.7045 74.8157 14.9176C75.0941 15.1278 75.435 15.233 75.8384 15.233C76.2589 15.233 76.6097 15.1222 76.891 14.9006C77.1751 14.6761 77.3881 14.375 77.5302 13.9972C77.6751 13.6165 77.7475 13.1932 77.7475 12.7273C77.7475 12.267 77.6765 11.8523 77.5344 11.483C77.3952 11.1108 77.1836 10.8168 76.8995 10.6009C76.6183 10.3821 76.2646 10.2727 75.8384 10.2727C75.4293 10.2727 75.0856 10.3764 74.8072 10.5838C74.5288 10.7884 74.3185 11.0753 74.1765 11.4446C74.0344 11.8111 73.9634 12.2386 73.9634 12.7273ZM81.2972 7.27273V16H80.2915V7.27273H81.2972ZM85.8835 16.1364C85.2528 16.1364 84.7088 15.9972 84.2514 15.7188C83.7969 15.4375 83.446 15.0455 83.1989 14.5426C82.9545 14.0369 82.8324 13.4489 82.8324 12.7784C82.8324 12.108 82.9545 11.517 83.1989 11.0057C83.446 10.4915 83.7898 10.0909 84.2301 9.80398C84.6733 9.5142 85.1903 9.36932 85.7812 9.36932C86.1222 9.36932 86.4588 9.42614 86.7912 9.53977C87.1236 9.65341 87.4261 9.83807 87.6989 10.0938C87.9716 10.3466 88.1889 10.6818 88.3509 11.0994C88.5128 11.517 88.5938 12.0312 88.5938 12.642V13.0682H83.5483V12.1989H87.571C87.571 11.8295 87.4972 11.5 87.3494 11.2102C87.2045 10.9205 86.9972 10.6918 86.7273 10.5241C86.4602 10.3565 86.1449 10.2727 85.7812 10.2727C85.3807 10.2727 85.0341 10.3722 84.7415 10.571C84.4517 10.767 84.2287 11.0227 84.0724 11.3381C83.9162 11.6534 83.8381 11.9915 83.8381 12.3523V12.9318C83.8381 13.4261 83.9233 13.8452 84.0938 14.1889C84.267 14.5298 84.5071 14.7898 84.8139 14.9688C85.1207 15.1449 85.4773 15.233 85.8835 15.233C86.1477 15.233 86.3864 15.196 86.5994 15.1222C86.8153 15.0455 87.0014 14.9318 87.1577 14.7812C87.3139 14.6278 87.4347 14.4375 87.5199 14.2102L88.4915 14.483C88.3892 14.8125 88.2173 15.1023 87.9759 15.3523C87.7344 15.5994 87.4361 15.7926 87.081 15.9318C86.7259 16.0682 86.3267 16.1364 85.8835 16.1364Z" fill="#CF1D1D"/>
</svg>
