<svg width="131" height="40" viewBox="0 0 131 40" fill="none" xmlns="http://www.w3.org/2000/svg">
<rect width="131" height="40" rx="5" fill="#2C8AD3"/>
<path d="M26.5376 18.1172C26.4912 17.683 26.2957 17.3449 25.951 17.103C25.6096 16.861 25.1655 16.7401 24.6186 16.7401C24.2341 16.7401 23.9044 16.7981 23.6293 16.9141C23.3542 17.0301 23.1437 17.1875 22.9979 17.3864C22.852 17.5852 22.7775 17.8123 22.7741 18.0675C22.7741 18.2796 22.8222 18.4635 22.9183 18.6193C23.0178 18.7751 23.152 18.9077 23.321 19.017C23.4901 19.1231 23.6773 19.2126 23.8828 19.2855C24.0883 19.3584 24.2955 19.4197 24.5043 19.4695L25.4588 19.7081C25.8433 19.7976 26.2128 19.9186 26.5675 20.071C26.9254 20.2235 27.2453 20.4157 27.527 20.6477C27.812 20.8797 28.0374 21.1598 28.2031 21.4879C28.3688 21.8161 28.4517 22.2005 28.4517 22.6413C28.4517 23.2379 28.2992 23.7633 27.9943 24.2173C27.6894 24.6681 27.2486 25.0211 26.6719 25.2763C26.0985 25.5282 25.4041 25.6541 24.5888 25.6541C23.7966 25.6541 23.1089 25.5315 22.5256 25.2862C21.9455 25.041 21.4915 24.683 21.1634 24.2124C20.8385 23.7417 20.6629 23.1683 20.6364 22.4922H22.451C22.4775 22.8468 22.5869 23.1418 22.7791 23.3771C22.9714 23.6125 23.2216 23.7881 23.5298 23.9041C23.8414 24.0201 24.1894 24.0781 24.5739 24.0781C24.9749 24.0781 25.3262 24.0185 25.6278 23.8991C25.9328 23.7765 26.1714 23.6075 26.3438 23.392C26.5161 23.1733 26.6039 22.9181 26.6072 22.6264C26.6039 22.3613 26.526 22.1425 26.3736 21.9702C26.2211 21.7945 26.0073 21.6487 25.7322 21.5327C25.4605 21.4134 25.1423 21.3073 24.7777 21.2145L23.6193 20.9162C22.7808 20.7008 22.1179 20.3743 21.6307 19.9368C21.1468 19.496 20.9048 18.911 20.9048 18.1818C20.9048 17.5819 21.0672 17.0566 21.392 16.6058C21.7202 16.1551 22.166 15.8054 22.7294 15.5568C23.2929 15.3049 23.9309 15.179 24.6435 15.179C25.366 15.179 25.9991 15.3049 26.5426 15.5568C27.0895 15.8054 27.5187 16.1518 27.8303 16.5959C28.1418 17.0367 28.3026 17.5438 28.3125 18.1172H26.5376ZM33.3972 25.6491C32.6316 25.6491 31.9703 25.4901 31.4135 25.1719C30.86 24.8504 30.4341 24.3963 30.1358 23.8097C29.8375 23.2197 29.6884 22.5253 29.6884 21.7266C29.6884 20.9411 29.8375 20.2517 30.1358 19.6584C30.4374 19.0618 30.8584 18.5978 31.3986 18.2663C31.9389 17.9316 32.5736 17.7642 33.3027 17.7642C33.7734 17.7642 34.2175 17.8404 34.6351 17.9929C35.056 18.142 35.4273 18.3741 35.7488 18.6889C36.0736 19.0038 36.3288 19.4048 36.5144 19.892C36.7 20.3759 36.7928 20.9527 36.7928 21.6222V22.174H30.5336V20.9609H35.0676C35.0643 20.6162 34.9898 20.3097 34.8439 20.0412C34.6981 19.7694 34.4943 19.5556 34.2324 19.3999C33.9739 19.2441 33.6723 19.1662 33.3276 19.1662C32.9597 19.1662 32.6365 19.2557 32.3581 19.4347C32.0797 19.6103 31.8626 19.8423 31.7069 20.1307C31.5544 20.4157 31.4765 20.7289 31.4732 21.0703V22.1293C31.4732 22.5734 31.5544 22.9545 31.7168 23.2727C31.8792 23.5876 32.1062 23.8295 32.3979 23.9986C32.6896 24.1643 33.031 24.2472 33.4221 24.2472C33.6839 24.2472 33.9209 24.2107 34.133 24.1378C34.3451 24.0616 34.5291 23.9505 34.6848 23.8047C34.8406 23.6589 34.9583 23.4782 35.0378 23.2628L36.7182 23.4517C36.6122 23.8958 36.41 24.2836 36.1117 24.6151C35.8167 24.9432 35.4389 25.1984 34.9782 25.3807C34.5175 25.5597 33.9905 25.6491 33.3972 25.6491ZM41.696 25.6491C40.9304 25.6491 40.2692 25.4901 39.7124 25.1719C39.1589 24.8504 38.733 24.3963 38.4347 23.8097C38.1364 23.2197 37.9872 22.5253 37.9872 21.7266C37.9872 20.9411 38.1364 20.2517 38.4347 19.6584C38.7363 19.0618 39.1572 18.5978 39.6974 18.2663C40.2377 17.9316 40.8724 17.7642 41.6016 17.7642C42.0722 17.7642 42.5163 17.8404 42.9339 17.9929C43.3549 18.142 43.7261 18.3741 44.0476 18.6889C44.3724 19.0038 44.6276 19.4048 44.8132 19.892C44.9988 20.3759 45.0916 20.9527 45.0916 21.6222V22.174H38.8324V20.9609H43.3665C43.3632 20.6162 43.2886 20.3097 43.1428 20.0412C42.9969 19.7694 42.7931 19.5556 42.5312 19.3999C42.2727 19.2441 41.9711 19.1662 41.6264 19.1662C41.2585 19.1662 40.9354 19.2557 40.657 19.4347C40.3786 19.6103 40.1615 19.8423 40.0057 20.1307C39.8532 20.4157 39.7753 20.7289 39.772 21.0703V22.1293C39.772 22.5734 39.8532 22.9545 40.0156 23.2727C40.178 23.5876 40.4051 23.8295 40.6967 23.9986C40.9884 24.1643 41.3298 24.2472 41.7209 24.2472C41.9827 24.2472 42.2197 24.2107 42.4318 24.1378C42.6439 24.0616 42.8279 23.9505 42.9837 23.8047C43.1394 23.6589 43.2571 23.4782 43.3366 23.2628L45.017 23.4517C44.911 23.8958 44.7088 24.2836 44.4105 24.6151C44.1155 24.9432 43.7377 25.1984 43.277 25.3807C42.8163 25.5597 42.2893 25.6491 41.696 25.6491ZM53.6167 25.5H50.1664V15.3182H53.6863C54.6971 15.3182 55.5655 15.522 56.2914 15.9297C57.0205 16.334 57.5807 16.9157 57.9718 17.6747C58.3629 18.4337 58.5584 19.3419 58.5584 20.3991C58.5584 21.4598 58.3612 22.3712 57.9668 23.1335C57.5757 23.8958 57.0106 24.4808 56.2715 24.8885C55.5357 25.2962 54.6507 25.5 53.6167 25.5ZM52.0108 23.9041H53.5272C54.2364 23.9041 54.8281 23.7749 55.302 23.5163C55.776 23.2545 56.1323 22.8651 56.3709 22.348C56.6096 21.8277 56.7289 21.178 56.7289 20.3991C56.7289 19.6203 56.6096 18.974 56.3709 18.4602C56.1323 17.9432 55.7793 17.5571 55.312 17.3018C54.848 17.0433 54.2712 16.9141 53.5819 16.9141H52.0108V23.9041ZM63.612 25.6491C62.8464 25.6491 62.1852 25.4901 61.6284 25.1719C61.0749 24.8504 60.649 24.3963 60.3507 23.8097C60.0524 23.2197 59.9032 22.5253 59.9032 21.7266C59.9032 20.9411 60.0524 20.2517 60.3507 19.6584C60.6523 19.0618 61.0732 18.5978 61.6135 18.2663C62.1537 17.9316 62.7884 17.7642 63.5176 17.7642C63.9882 17.7642 64.4324 17.8404 64.85 17.9929C65.2709 18.142 65.6421 18.3741 65.9636 18.6889C66.2884 19.0038 66.5436 19.4048 66.7292 19.892C66.9148 20.3759 67.0076 20.9527 67.0076 21.6222V22.174H60.7484V20.9609H65.2825C65.2792 20.6162 65.2046 20.3097 65.0588 20.0412C64.9129 19.7694 64.7091 19.5556 64.4473 19.3999C64.1887 19.2441 63.8871 19.1662 63.5424 19.1662C63.1745 19.1662 62.8514 19.2557 62.573 19.4347C62.2946 19.6103 62.0775 19.8423 61.9217 20.1307C61.7692 20.4157 61.6913 20.7289 61.688 21.0703V22.1293C61.688 22.5734 61.7692 22.9545 61.9316 23.2727C62.094 23.5876 62.3211 23.8295 62.6127 23.9986C62.9044 24.1643 63.2458 24.2472 63.6369 24.2472C63.8987 24.2472 64.1357 24.2107 64.3478 24.1378C64.56 24.0616 64.7439 23.9505 64.8997 23.8047C65.0555 23.6589 65.1731 23.4782 65.2527 23.2628L66.9331 23.4517C66.827 23.8958 66.6248 24.2836 66.3265 24.6151C66.0315 24.9432 65.6537 25.1984 65.193 25.3807C64.7323 25.5597 64.2053 25.6491 63.612 25.6491ZM72.3434 17.8636V19.2557H67.9535V17.8636H72.3434ZM69.0373 16.0341H70.837V23.2031C70.837 23.4451 70.8735 23.6307 70.9464 23.7599C71.0226 23.8859 71.122 23.9721 71.2447 24.0185C71.3673 24.0649 71.5032 24.0881 71.6523 24.0881C71.765 24.0881 71.8678 24.0798 71.9606 24.0632C72.0567 24.0466 72.1296 24.0317 72.1793 24.0185L72.4826 25.4254C72.3865 25.4586 72.2489 25.495 72.07 25.5348C71.8943 25.5746 71.6789 25.5978 71.4237 25.6044C70.9729 25.6177 70.5669 25.5497 70.2056 25.4006C69.8443 25.2481 69.5576 25.0128 69.3455 24.6946C69.1367 24.3764 69.034 23.9787 69.0373 23.5014V16.0341ZM76.046 25.6541C75.5621 25.6541 75.1262 25.5679 74.7385 25.3956C74.354 25.2199 74.0491 24.9614 73.8237 24.62C73.6016 24.2786 73.4906 23.8577 73.4906 23.3572C73.4906 22.9264 73.5701 22.5701 73.7292 22.2884C73.8883 22.0066 74.1054 21.7812 74.3805 21.6122C74.6556 21.4432 74.9655 21.3156 75.3102 21.2294C75.6582 21.1399 76.0178 21.0753 76.389 21.0355C76.8365 20.9891 77.1994 20.9477 77.4778 20.9112C77.7562 20.8714 77.9584 20.8118 78.0843 20.7322C78.2136 20.6494 78.2782 20.5218 78.2782 20.3494V20.3196C78.2782 19.9451 78.1672 19.6551 77.9451 19.4496C77.7231 19.2441 77.4032 19.1413 76.9856 19.1413C76.5448 19.1413 76.1951 19.2375 75.9366 19.4297C75.6814 19.6219 75.5091 19.849 75.4196 20.1108L73.7392 19.8722C73.8717 19.4081 74.0905 19.0204 74.3954 18.7088C74.7003 18.3939 75.0732 18.1586 75.514 18.0028C75.9548 17.8438 76.4421 17.7642 76.9757 17.7642C77.3436 17.7642 77.7098 17.8073 78.0744 17.8935C78.439 17.9796 78.7721 18.1222 79.0737 18.321C79.3753 18.5166 79.6172 18.7834 79.7995 19.1214C79.9851 19.4595 80.0779 19.8821 80.0779 20.3892V25.5H78.3478V24.451H78.2882C78.1788 24.6631 78.0247 24.862 77.8258 25.0476C77.6303 25.2299 77.3833 25.3774 77.085 25.4901C76.7901 25.5994 76.4437 25.6541 76.046 25.6541ZM76.5133 24.3317C76.8746 24.3317 77.1878 24.2604 77.4529 24.1179C77.7181 23.9721 77.9219 23.7798 78.0645 23.5412C78.2103 23.3026 78.2832 23.0424 78.2832 22.7607V21.8608C78.2269 21.9072 78.1307 21.9503 77.9949 21.9901C77.8623 22.0298 77.7131 22.0646 77.5474 22.0945C77.3817 22.1243 77.2176 22.1508 77.0552 22.174C76.8928 22.1972 76.752 22.2171 76.6326 22.2337C76.3642 22.2701 76.1239 22.3298 75.9118 22.4126C75.6996 22.4955 75.5323 22.6115 75.4096 22.7607C75.287 22.9065 75.2257 23.0954 75.2257 23.3274C75.2257 23.6589 75.3467 23.9091 75.5886 24.0781C75.8306 24.2472 76.1388 24.3317 76.5133 24.3317ZM81.8876 25.5V17.8636H83.6873V25.5H81.8876ZM82.7924 16.7798C82.5074 16.7798 82.2621 16.6854 82.0566 16.4964C81.8511 16.3042 81.7484 16.0739 81.7484 15.8054C81.7484 15.5336 81.8511 15.3033 82.0566 15.1143C82.2621 14.9221 82.5074 14.826 82.7924 14.826C83.0808 14.826 83.3261 14.9221 83.5282 15.1143C83.7337 15.3033 83.8365 15.5336 83.8365 15.8054C83.8365 16.0739 83.7337 16.3042 83.5282 16.4964C83.3261 16.6854 83.0808 16.7798 82.7924 16.7798ZM87.3377 15.3182V25.5H85.538V15.3182H87.3377Z" fill="#FDFDFD"/>
<path d="M101.568 24.95L105.643 20.875C106.125 20.3938 106.125 19.6063 105.643 19.125L101.568 15.05" stroke="#FDFDFD" stroke-width="1.5" stroke-miterlimit="10" stroke-linecap="round" stroke-linejoin="round"/>
</svg>
